# xmcd
#
# Track frame offsets: 
#        150
#        15538
#        31189
#        51242
#        68297
#        83581
#        100053
#        118086
#        130760
#        147525
#        160577
#
# Disc length: 2412 seconds
#
# Revision: 1
# Processed by: cddbd v1.5.2PL0 Copyright (c) Steve Scherf et al.
# Submitted via: ExactAudioCopy v1.0b1
#
DISCID=81096a0b
DTITLE=Alison Krauss - Forget About It
DYEAR=1999
DGENRE=Country
TTITLE0=Stay
TTITLE1=Forget About It
TTITLE2=It Wouldn't Have Made Any Difference
TTITLE3=Maybe
TTITLE4=Empty Hearts
TTITLE5=Never Got Off The Ground
TTITLE6=Ghost In This House
TTITLE7=It Don't Matter Now
TTITLE8=That Kind Of Love
TTITLE9=Could You Lie
TTITLE10=Dreaming My Dreams With You
EXTD=YEAR: 1999
EXTT0=
EXTT1=
EXTT2=
EXTT3=
EXTT4=
EXTT5=
EXTT6=
EXTT7=
EXTT8=
EXTT9=
EXTT10=
PLAYORDER=
